<?xml version="1.0" encoding="UTF-8" standalone="no"?><!-- Generator: Gravit.io --><svg xmlns="http://www.w3.org/2000/svg" xmlns:xlink="http://www.w3.org/1999/xlink" style="isolation:isolate" viewBox="0 0 192 192" width="192pt" height="192pt"><defs><clipPath id="_clipPath_5qw20jVDzTl0RLk9ktGRVtuq7vH8WLmM"><rect width="192" height="192"/></clipPath></defs><g clip-path="url(#_clipPath_5qw20jVDzTl0RLk9ktGRVtuq7vH8WLmM)"><path d=" M 131.372 134.19 L 131.612 139.742 C 131.621 140.458 131.05 141.047 130.334 141.06 L 118.03 141.06 C 117.711 141.06 117.351 140.901 117.111 140.661 C 116.872 140.421 116.752 140.062 116.792 139.702 L 117.191 134.07 C 117.151 133.351 116.792 128.238 116.432 122.246 C 117.551 113.897 119.348 102.952 121.585 96.84 C 122.504 94.323 123.942 91.447 125.46 88.851 C 126.818 89.45 128.216 90.009 129.615 90.489 C 130.693 94.923 131.652 100.994 132.251 104.629 L 132.491 106.068 C 133.33 111.34 131.452 133.271 131.372 134.19 Z  M 157.896 75.149 C 160.054 83.658 167.563 87.453 171.438 88.891 C 167.324 88.771 158.855 87.173 152.264 77.107 C 152.104 76.907 151.865 76.867 151.665 76.987 C 151.465 77.107 151.425 77.386 151.545 77.586 C 158.695 88.491 168.123 89.77 172.077 89.77 C 172.477 89.77 172.796 89.77 173.036 89.69 C 170.08 97.559 165.766 105.588 161.492 108.464 C 155.3 112.619 145.633 112.299 141.638 107.865 C 138.682 104.59 138.243 100.116 138.403 96.92 C 138.443 96.281 138.962 95.722 139.641 95.722 L 145.793 95.562 C 146.112 95.562 146.472 95.682 146.712 95.921 C 146.951 96.161 147.071 96.48 147.071 96.84 C 147.071 98.118 147.391 99.876 148.19 100.875 C 148.789 101.634 149.987 102.033 151.425 101.913 C 153.343 101.713 155.1 100.715 155.899 99.277 C 158.136 95.202 157.617 87.692 156.618 86.454 C 156.219 85.935 155.779 85.375 155.34 84.776 C 153.662 82.579 151.785 80.103 150.067 79.184 C 149.468 78.864 147.391 78.704 144.754 78.744 C 144.994 75.748 145.074 73.152 145.114 72.073 C 145.114 71.834 144.954 71.634 144.714 71.634 C 144.475 71.674 144.275 71.794 144.275 72.033 C 144.275 72.513 144.275 73.032 144.235 73.551 L 144.235 73.791 C 144.195 74.27 144.195 74.75 144.155 75.229 L 144.155 75.349 C 144.155 75.908 144.115 76.428 144.075 76.987 L 144.075 77.027 L 143.955 78.784 C 143.516 84.776 142.717 90.888 141.638 91.567 C 140.2 92.486 133.489 91.168 127.138 88.611 C 127.098 88.611 127.058 88.571 127.018 88.571 C 126.778 88.451 126.499 88.371 126.259 88.252 C 125.74 88.052 125.26 87.852 124.781 87.612 C 124.741 87.573 124.701 87.573 124.661 87.533 C 124.182 87.293 123.703 87.093 123.263 86.853 C 123.103 86.814 122.984 86.734 122.864 86.654 C 122.824 86.654 122.824 86.614 122.784 86.614 L 122.304 86.374 C 122.145 86.254 121.985 86.174 121.825 86.095 C 121.346 85.815 120.906 85.535 120.467 85.256 C 113.836 81.021 110.401 67.759 110.081 66.441 C 110.48 65.003 115.114 49.464 123.503 45.669 C 132.171 41.754 141.479 51.461 141.558 51.541 C 141.718 51.701 141.998 51.701 142.158 51.541 C 142.317 51.381 142.317 51.102 142.158 50.942 C 141.758 50.543 132.371 40.716 123.143 44.91 C 114.036 49.025 109.442 65.602 109.242 66.321 L 109.242 66.521 C 109.362 67.08 112.318 79.304 118.47 84.776 C 118.629 84.896 118.789 85.056 118.949 85.176 C 119.309 85.455 119.628 85.695 119.988 85.935 C 121.346 86.814 122.944 87.692 124.661 88.451 C 124.342 89.011 124.022 89.61 123.703 90.169 C 123.663 90.289 123.583 90.369 123.543 90.489 C 122.904 91.687 122.304 92.925 121.745 94.124 C 121.665 94.283 121.625 94.403 121.546 94.563 C 121.226 95.242 120.986 95.881 120.747 96.52 C 120.507 97.08 120.307 97.719 120.107 98.398 C 120.068 98.598 119.988 98.757 119.948 98.957 C 119.788 99.516 119.628 100.116 119.468 100.715 L 119.348 101.114 C 119.149 101.873 118.989 102.632 118.789 103.431 L 118.669 103.99 C 118.51 104.669 118.39 105.349 118.23 106.028 C 118.19 106.187 118.15 106.387 118.11 106.587 C 117.91 107.466 117.751 108.305 117.591 109.183 C 117.591 109.263 117.551 109.343 117.551 109.423 C 117.391 110.262 117.271 111.061 117.111 111.9 C 117.111 112.099 117.072 112.259 117.032 112.459 C 116.712 114.296 116.432 116.094 116.153 117.852 C 115.673 121.007 115.274 123.963 114.954 126.48 C 114.553 129.032 114.18 131.589 113.836 134.15 L 114.076 139.742 C 114.085 140.458 113.513 141.047 112.797 141.06 L 100.494 141.06 C 100.174 141.06 99.815 140.901 99.575 140.661 C 99.335 140.421 99.216 140.062 99.256 139.702 L 99.655 134.07 C 99.575 132.552 98.217 113.098 98.097 104.47 L 98.097 104.39 C 98.017 99.277 95.421 95.162 94.302 93.405 C 94.103 93.125 93.903 92.766 93.863 92.686 C 93.783 92.446 93.583 92.326 93.344 92.366 C 93.104 92.446 92.984 92.646 93.024 92.885 C 93.064 93.085 93.224 93.285 93.583 93.884 C 94.662 95.602 97.178 99.596 97.258 104.47 L 97.258 104.869 C 93.903 106.866 88.91 109.024 81.719 110.581 L 81.599 110.581 C 77.565 111.46 73.85 111.78 70.654 111.78 C 68.577 111.78 66.779 111.66 65.182 111.46 C 65.222 111.42 65.222 111.38 65.261 111.34 C 65.421 111.101 65.581 110.901 65.701 110.741 C 67.099 108.824 68.337 106.587 69.895 103.791 C 70.814 102.153 71.853 100.315 73.051 98.238 C 73.171 98.038 73.091 97.759 72.891 97.639 C 72.691 97.519 72.412 97.599 72.292 97.799 C 71.094 99.876 70.055 101.753 69.136 103.391 C 67.618 106.147 66.38 108.344 65.022 110.262 C 64.902 110.382 64.782 110.581 64.582 110.821 C 63.501 112.182 62.526 113.625 61.666 115.135 C 60.508 117.053 59.389 119.449 59.31 121.966 C 59.19 126.24 59.27 132.592 59.27 133.83 L 61.227 139.343 C 61.347 139.742 61.307 140.181 61.067 140.501 C 60.827 140.861 60.428 141.06 60.029 141.06 L 46.367 141.06 C 45.648 141.06 45.089 140.501 45.089 139.782 L 45.049 134.07 C 45.089 133.95 45.249 124.882 43.651 118.131 C 43.571 117.772 43.091 116.054 42.932 115.535 C 42.612 114.416 42.253 113.458 41.813 112.659 C 40.535 110.302 37.659 108.145 34.383 105.668 C 27.872 100.755 19.324 94.244 17.925 82.26 C 17.726 84.057 17.606 85.975 17.606 88.092 C 17.606 92.126 18.644 94.683 19.763 97.399 C 21.001 100.395 22.28 103.471 22.319 108.584 C 22.799 109.623 23.198 110.861 23.118 111.82 C 22.999 113.937 21.121 116.493 21.121 116.493 C 21.121 116.493 18.565 113.577 19.004 110.901 C 19.164 109.942 19.483 109.143 19.803 108.424 C 19.723 103.95 18.604 101.194 17.446 98.358 C 16.288 95.522 15.089 92.606 15.089 88.092 C 15.089 75.309 19.044 68.119 19.723 67 C 23.837 54.377 33.824 44.99 42.812 40.995 C 59.869 33.406 77.006 36.921 87.232 39.038 C 89.868 39.597 92.105 40.037 93.743 40.196 C 102.731 41.035 112.358 40.117 113.317 39.957 C 115.594 39.597 117.91 39.917 119.948 40.157 C 121.506 40.316 122.984 40.516 123.902 40.316 C 124.102 40.276 124.901 39.957 125.7 39.637 C 131.372 37.4 144.674 32.127 152.104 34.684 C 161.332 37.88 176.911 64.364 176.911 74.231 C 176.911 77.346 175.553 82.899 173.475 88.691 C 171.119 88.012 161.212 84.736 158.735 74.95 C 158.655 74.71 158.456 74.59 158.216 74.63 C 157.976 74.71 157.856 74.91 157.896 75.149 L 157.896 75.149 Z  M 27.033 70.036 C 26.594 69.916 26.114 70.156 25.955 70.595 C 25.116 73.192 24.556 75.908 24.317 78.625 C 24.277 79.104 24.596 79.503 25.076 79.543 L 25.156 79.543 C 25.595 79.543 25.955 79.224 25.995 78.784 C 26.194 76.188 26.714 73.631 27.552 71.115 C 27.712 70.675 27.473 70.196 27.033 70.036 L 27.033 70.036 Z  M 77.605 43.792 C 77.645 43.312 77.325 42.873 76.846 42.833 C 65.581 41.475 55.914 42.713 47.206 46.588 C 40.934 49.384 32.506 56.015 27.672 66.321 C 27.473 66.721 27.632 67.24 28.072 67.44 C 28.192 67.48 28.311 67.52 28.431 67.52 C 28.751 67.52 29.03 67.36 29.19 67.04 C 33.824 57.174 41.893 50.782 47.885 48.106 C 56.274 44.351 65.701 43.152 76.646 44.471 C 77.086 44.551 77.525 44.191 77.605 43.792 L 77.605 43.792 Z  M 42.053 133.87 C 42.053 132.632 41.973 126.28 42.093 122.006 C 42.133 120.927 42.372 119.809 42.772 118.651 C 42.412 116.374 41.813 114.416 41.054 113.058 C 39.856 110.901 37.06 108.784 33.864 106.347 C 29.789 103.271 24.916 99.556 21.441 94.323 C 21.72 100.795 23.638 107.186 25.395 112.858 C 26.554 116.653 27.672 120.248 28.152 123.404 C 28.911 128.517 27.912 133.79 27.872 133.83 C 27.872 133.91 27.832 133.99 27.832 134.07 L 27.872 139.782 C 27.872 140.501 28.431 141.06 29.15 141.06 L 42.812 141.06 C 43.211 141.06 43.611 140.861 43.85 140.501 C 44.09 140.181 44.13 139.742 44.01 139.343 L 42.053 133.87 L 42.053 133.87 Z " fill="rgb(0,0,0)" vector-effect="non-scaling-stroke" stroke-width="0.5" stroke="rgb(244,244,247)" stroke-linejoin="miter" stroke-linecap="butt" stroke-miterlimit="4"/><text transform="matrix(0.384,0,0,0.384,65.632,166.565)" style="font-family:'Lilita One';font-weight:400;font-size:72px;font-style:normal;fill:#000000;stroke:none;">ELLY</text></g></svg>