<?xml version="1.0" encoding="UTF-8" standalone="no"?><!-- Generator: Gravit.io --><svg xmlns="http://www.w3.org/2000/svg" xmlns:xlink="http://www.w3.org/1999/xlink" style="isolation:isolate" viewBox="0 0 192 192" width="192pt" height="192pt"><defs><clipPath id="_clipPath_kdzcmDG8XkkZmlFJcn24gDUubkwwWVmQ"><rect width="192" height="192"/></clipPath></defs><g clip-path="url(#_clipPath_kdzcmDG8XkkZmlFJcn24gDUubkwwWVmQ)"><path d=" M 135.461 145.365 L 135.701 150.917 C 135.71 151.634 135.139 152.222 134.423 152.236 L 122.119 152.236 C 121.8 152.236 121.44 152.076 121.201 151.836 C 120.961 151.596 120.841 151.237 120.881 150.877 L 121.281 145.245 C 121.241 144.526 120.881 139.413 120.522 133.421 C 121.64 125.072 123.438 114.127 125.675 108.015 C 126.593 105.499 128.032 102.623 129.549 100.026 C 130.908 100.625 132.306 101.184 133.704 101.664 C 134.782 106.098 135.741 112.17 136.34 115.805 L 136.58 117.243 C 137.419 122.516 135.541 144.446 135.461 145.365 Z  M 161.986 86.325 C 164.143 94.833 171.653 98.628 175.527 100.066 C 171.413 99.946 162.944 98.348 156.353 88.282 C 156.193 88.082 155.954 88.042 155.754 88.162 C 155.554 88.282 155.514 88.562 155.634 88.761 C 162.785 99.667 172.212 100.945 176.167 100.945 C 176.566 100.945 176.886 100.945 177.125 100.865 C 174.169 108.734 169.855 116.763 165.581 119.64 C 159.389 123.794 149.722 123.474 145.728 119.04 C 142.772 115.765 142.332 111.291 142.492 108.095 C 142.532 107.456 143.051 106.897 143.73 106.897 L 149.882 106.737 C 150.202 106.737 150.561 106.857 150.801 107.097 C 151.04 107.336 151.16 107.656 151.16 108.015 C 151.16 109.294 151.48 111.051 152.279 112.05 C 152.878 112.809 154.076 113.208 155.514 113.088 C 157.432 112.889 159.189 111.89 159.988 110.452 C 162.225 106.377 161.706 98.868 160.707 97.629 C 160.308 97.11 159.869 96.551 159.429 95.952 C 157.751 93.755 155.874 91.278 154.156 90.359 C 153.557 90.04 151.48 89.88 148.843 89.92 C 149.083 86.924 149.163 84.327 149.203 83.249 C 149.203 83.009 149.043 82.809 148.803 82.809 C 148.564 82.849 148.364 82.969 148.364 83.209 C 148.364 83.688 148.364 84.207 148.324 84.727 L 148.324 84.966 C 148.284 85.446 148.284 85.925 148.244 86.404 L 148.244 86.524 C 148.244 87.084 148.204 87.603 148.164 88.162 L 148.164 88.202 L 148.044 89.96 C 147.605 95.952 146.806 102.063 145.728 102.742 C 144.29 103.661 137.579 102.343 131.227 99.786 C 131.187 99.786 131.147 99.746 131.107 99.746 C 130.868 99.627 130.588 99.547 130.348 99.427 C 129.829 99.227 129.35 99.027 128.87 98.788 C 128.83 98.748 128.79 98.748 128.751 98.708 C 128.271 98.468 127.792 98.268 127.352 98.029 C 127.193 97.989 127.073 97.909 126.953 97.829 C 126.913 97.829 126.913 97.789 126.873 97.789 L 126.394 97.549 C 126.234 97.43 126.074 97.35 125.914 97.27 C 125.435 96.99 124.996 96.711 124.556 96.431 C 117.925 92.197 114.49 78.935 114.17 77.616 C 114.57 76.178 119.203 60.639 127.592 56.844 C 136.26 52.93 145.568 62.637 145.648 62.716 C 145.808 62.876 146.087 62.876 146.247 62.716 C 146.407 62.557 146.407 62.277 146.247 62.117 C 145.847 61.718 136.46 51.891 127.233 56.085 C 118.125 60.2 113.531 76.777 113.331 77.496 L 113.331 77.696 C 113.451 78.255 116.407 90.479 122.559 95.952 C 122.719 96.071 122.878 96.231 123.038 96.351 C 123.398 96.631 123.717 96.87 124.077 97.11 C 125.435 97.989 127.033 98.868 128.751 99.627 C 128.431 100.186 128.111 100.785 127.792 101.344 C 127.752 101.464 127.672 101.544 127.632 101.664 C 126.993 102.862 126.394 104.101 125.834 105.299 C 125.755 105.459 125.715 105.579 125.635 105.738 C 125.315 106.417 125.076 107.057 124.836 107.696 C 124.596 108.255 124.396 108.894 124.197 109.573 C 124.157 109.773 124.077 109.933 124.037 110.132 C 123.877 110.692 123.717 111.291 123.558 111.89 L 123.438 112.29 C 123.238 113.048 123.078 113.807 122.878 114.606 L 122.759 115.166 C 122.599 115.845 122.479 116.524 122.319 117.203 C 122.279 117.363 122.239 117.562 122.199 117.762 C 122 118.641 121.84 119.48 121.68 120.359 C 121.68 120.439 121.64 120.518 121.64 120.598 C 121.48 121.437 121.361 122.236 121.201 123.075 C 121.201 123.275 121.161 123.434 121.121 123.634 C 120.801 125.472 120.522 127.269 120.242 129.027 C 119.763 132.183 119.363 135.139 119.044 137.655 C 118.642 140.207 118.269 142.764 117.925 145.325 L 118.165 150.917 C 118.174 151.634 117.603 152.222 116.887 152.236 L 104.583 152.236 C 104.264 152.236 103.904 152.076 103.664 151.836 C 103.425 151.596 103.305 151.237 103.345 150.877 L 103.744 145.245 C 103.664 143.727 102.306 124.273 102.186 115.645 L 102.186 115.565 C 102.107 110.452 99.51 106.338 98.392 104.58 C 98.192 104.3 97.992 103.941 97.952 103.861 C 97.872 103.621 97.673 103.501 97.433 103.541 C 97.193 103.621 97.073 103.821 97.113 104.061 C 97.153 104.26 97.313 104.46 97.673 105.059 C 98.751 106.777 101.268 110.772 101.348 115.645 L 101.348 116.044 C 97.992 118.042 92.999 120.199 85.809 121.757 L 85.689 121.757 C 81.654 122.636 77.939 122.955 74.743 122.955 C 72.666 122.955 70.869 122.835 69.271 122.636 C 69.311 122.596 69.311 122.556 69.351 122.516 C 69.511 122.276 69.67 122.076 69.79 121.917 C 71.188 119.999 72.427 117.762 73.984 114.966 C 74.903 113.328 75.942 111.491 77.14 109.413 C 77.26 109.214 77.18 108.934 76.98 108.814 C 76.781 108.694 76.501 108.774 76.381 108.974 C 75.183 111.051 74.144 112.929 73.226 114.566 C 71.708 117.323 70.469 119.52 69.111 121.437 C 68.991 121.557 68.871 121.757 68.672 121.996 C 67.59 123.358 66.615 124.8 65.756 126.311 C 64.597 128.228 63.479 130.625 63.399 133.141 C 63.279 137.416 63.359 143.767 63.359 145.005 L 65.316 150.518 C 65.436 150.917 65.396 151.357 65.156 151.676 C 64.917 152.036 64.517 152.236 64.118 152.236 L 50.456 152.236 C 49.737 152.236 49.178 151.676 49.178 150.957 L 49.138 145.245 C 49.178 145.125 49.338 136.057 47.74 129.307 C 47.66 128.947 47.181 127.229 47.021 126.71 C 46.701 125.592 46.342 124.633 45.902 123.834 C 44.624 121.477 41.748 119.32 38.472 116.843 C 31.961 111.93 23.413 105.419 22.015 93.435 C 21.815 95.233 21.695 97.15 21.695 99.267 C 21.695 103.302 22.734 105.858 23.852 108.575 C 25.091 111.57 26.369 114.646 26.409 119.759 C 26.888 120.798 27.288 122.036 27.208 122.995 C 27.088 125.112 25.21 127.669 25.21 127.669 C 25.21 127.669 22.654 124.753 23.093 122.076 C 23.253 121.118 23.573 120.319 23.892 119.6 C 23.812 115.126 22.694 112.369 21.535 109.533 C 20.377 106.697 19.178 103.781 19.178 99.267 C 19.178 86.484 23.133 79.294 23.812 78.176 C 27.927 65.553 37.913 56.165 46.901 52.171 C 63.958 44.581 81.095 48.096 91.321 50.213 C 93.958 50.773 96.194 51.212 97.832 51.372 C 106.82 52.211 116.447 51.292 117.406 51.132 C 119.683 50.773 122 51.092 124.037 51.332 C 125.595 51.492 127.073 51.691 127.992 51.492 C 128.191 51.452 128.99 51.132 129.789 50.813 C 135.461 48.576 148.764 43.303 156.193 45.859 C 165.421 49.055 181 75.539 181 85.406 C 181 88.522 179.642 94.074 177.565 99.866 C 175.208 99.187 165.301 95.912 162.825 86.125 C 162.745 85.885 162.545 85.765 162.305 85.805 C 162.066 85.885 161.946 86.085 161.986 86.325 L 161.986 86.325 Z  M 31.122 81.211 C 30.683 81.092 30.204 81.331 30.044 81.771 C 29.205 84.367 28.646 87.084 28.406 89.8 C 28.366 90.279 28.686 90.679 29.165 90.719 L 29.245 90.719 C 29.684 90.719 30.044 90.399 30.084 89.96 C 30.283 87.363 30.803 84.807 31.642 82.29 C 31.801 81.851 31.562 81.371 31.122 81.211 L 31.122 81.211 Z  M 81.694 54.967 C 81.734 54.488 81.414 54.048 80.935 54.008 C 69.67 52.65 60.003 53.888 51.295 57.763 C 45.024 60.559 36.595 67.19 31.761 77.496 C 31.562 77.896 31.722 78.415 32.161 78.615 C 32.281 78.655 32.401 78.695 32.52 78.695 C 32.84 78.695 33.12 78.535 33.279 78.216 C 37.913 68.349 45.982 61.957 51.974 59.281 C 60.363 55.526 69.79 54.328 80.735 55.646 C 81.175 55.726 81.614 55.366 81.694 54.967 L 81.694 54.967 Z  M 46.142 145.045 C 46.142 143.807 46.062 137.456 46.182 133.181 C 46.222 132.103 46.462 130.984 46.861 129.826 C 46.502 127.549 45.902 125.592 45.143 124.233 C 43.945 122.076 41.149 119.959 37.953 117.522 C 33.879 114.447 29.005 110.732 25.53 105.499 C 25.81 111.97 27.727 118.361 29.485 124.034 C 30.643 127.829 31.761 131.424 32.241 134.579 C 33 139.693 32.001 144.965 31.961 145.005 C 31.961 145.085 31.921 145.165 31.921 145.245 L 31.961 150.957 C 31.961 151.676 32.52 152.236 33.239 152.236 L 46.901 152.236 C 47.301 152.236 47.7 152.036 47.94 151.676 C 48.179 151.357 48.219 150.917 48.099 150.518 L 46.142 145.045 L 46.142 145.045 Z " fill="rgb(0,0,0)" vector-effect="non-scaling-stroke" stroke-width="0.5" stroke="rgb(244,244,247)" stroke-linejoin="miter" stroke-linecap="butt" stroke-miterlimit="4"/><text transform="matrix(0.384,0,0,0.384,56.435,93.215)" style="font-family:'Lilita One';font-weight:400;font-size:72px;font-style:normal;fill:#ffffff;stroke:none;">ELLY</text></g></svg>